<svg width="32" height="32" viewBox="0 0 32 32" fill="none" xmlns="http://www.w3.org/2000/svg">
<path d="M16 6.66663C16.9866 6.66663 17.96 6.79996 18.8666 7.05329L21.04 3.27996C21.4133 2.66663 22.2266 2.42663 22.8666 2.79996C23.5066 3.15996 23.72 3.99996 23.3333 4.61329L21.3333 8.09329C22.96 9.03996 24.3066 10.3866 25.24 12H6.75998C7.69331 10.3866 9.03998 9.03996 10.6666 8.09329L8.66665 4.61329C8.27998 3.99996 8.49331 3.15996 9.13331 2.79996C9.77331 2.42663 10.5866 2.66663 10.96 3.27996L13.1333 7.05329C14.04 6.79996 15.0133 6.66663 16 6.66663ZM26.6666 17.3333C26.6666 22.8933 22.4266 27.4533 17 27.96V14H26.1333C26.48 15.0533 26.6666 16.1733 26.6666 17.3333ZM5.33331 17.3333C5.33331 16.1733 5.51998 15.0533 5.86665 14H15V27.96C9.57331 27.4533 5.33331 22.8933 5.33331 17.3333Z" fill="#1D1D1F"/>
</svg>
