<svg width="32" height="32" viewBox="0 0 32 32" fill="none" xmlns="http://www.w3.org/2000/svg">
<path d="M32 19.6364C32 17.3673 30.5018 15.4618 28.4364 14.8073C28.8436 14.08 29.0909 13.2509 29.0909 12.3636C29.0909 10.0945 27.5927 8.18909 25.5273 7.53455C25.9345 6.80727 26.1818 5.97818 26.1818 5.09091C26.1818 2.28364 23.8982 0 21.0909 0H10.9091C8.10182 0 5.81818 2.28364 5.81818 5.09091C5.81818 5.97818 6.06545 6.80727 6.47273 7.53455C4.42182 8.18909 2.90909 10.0945 2.90909 12.3636C2.90909 13.2509 3.15636 14.08 3.56364 14.8073C1.51273 15.4618 0 17.3673 0 19.6364C0 21.4691 0.974546 23.04 2.42909 23.9418C1.81818 24.7709 1.45455 25.8036 1.45455 26.9091C1.45455 29.7164 3.73818 32 6.54545 32H25.4545C28.2618 32 30.5455 29.7164 30.5455 26.9091C30.5455 25.8036 30.1818 24.7709 29.5709 23.9418C31.0255 23.04 32 21.4691 32 19.6364ZM10.9091 2.90909H21.0909C22.2982 2.90909 23.2727 3.88364 23.2727 5.09091C23.2727 6.29818 22.2982 7.27273 21.0909 7.27273H10.9091C9.70182 7.27273 8.72727 6.29818 8.72727 5.09091C8.72727 3.88364 9.70182 2.90909 10.9091 2.90909ZM8 10.1818H24C25.2073 10.1818 26.1818 11.1564 26.1818 12.3636C26.1818 13.5709 25.2073 14.5455 24 14.5455H8C6.79273 14.5455 5.81818 13.5709 5.81818 12.3636C5.81818 11.1564 6.79273 10.1818 8 10.1818ZM4.36364 26.9091C4.36364 25.7018 5.33818 24.7273 6.54545 24.7273H11.6364V29.0909H6.54545C5.33818 29.0909 4.36364 28.1164 4.36364 26.9091ZM25.4545 29.0909H20.3636V24.7273H25.4545C26.6618 24.7273 27.6364 25.7018 27.6364 26.9091C27.6364 28.1164 26.6618 29.0909 25.4545 29.0909ZM26.9091 21.8182H20.1018C19.4909 20.1309 17.8909 18.9091 16 18.9091C14.1091 18.9091 12.5091 20.1309 11.8982 21.8182H5.09091C3.88364 21.8182 2.90909 20.8436 2.90909 19.6364C2.90909 18.4291 3.88364 17.4545 5.09091 17.4545H26.9091C28.1164 17.4545 29.0909 18.4291 29.0909 19.6364C29.0909 20.8436 28.1164 21.8182 26.9091 21.8182Z" fill="#1D1D1F"/>
</svg>
