<svg width="32" height="32" viewBox="0 0 32 32" fill="none" xmlns="http://www.w3.org/2000/svg">
<path d="M17.5166 0V8.128C17.0158 8.03641 16.5082 7.99357 16 8C15.4918 7.99357 14.9842 8.03641 14.4834 8.128V0H17.5166ZM23.4313 20.8C23.3614 21.0983 23.2753 21.3921 23.1735 21.68L28.1327 24.672V32H25.0995V26.528L21.672 24.464C20.9687 25.3239 20.098 26.0137 19.1192 26.4866C18.1404 26.9594 17.0765 27.2042 16 27.2042C14.9235 27.2042 13.8596 26.9594 12.8808 26.4866C11.902 26.0137 11.0313 25.3239 10.328 24.464L6.90047 26.528V32H3.8673V24.672L8.82654 21.68C8.72465 21.3921 8.63857 21.0983 8.56872 20.8H5.83886L1.66825 23.728L0 21.072L4.92891 17.6H8.56872C8.66389 17.1184 8.80096 16.6471 8.9782 16.192L6.61232 14.592L1.1981 16L0.470142 12.8L7.18863 11.072L10.6919 13.52C12.1094 12.0542 14.0151 11.2331 16 11.2331C17.9849 11.2331 19.8906 12.0542 21.3081 13.52L24.7507 11.072L31.5299 12.8L30.8019 16L25.3877 14.576L23.0218 16.176C23.1999 16.6362 23.337 17.1129 23.4313 17.6H27.0711L32 21.056L30.3318 23.712L26.1611 20.8H23.4313ZM14.4834 19.2C14.4834 18.8836 14.3945 18.5742 14.2278 18.3111C14.0612 18.048 13.8243 17.8429 13.5472 17.7218C13.2701 17.6007 12.9651 17.569 12.671 17.6307C12.3768 17.6925 12.1065 17.8449 11.8944 18.0686C11.6823 18.2924 11.5379 18.5775 11.4794 18.8879C11.4209 19.1982 11.4509 19.5199 11.5657 19.8123C11.6805 20.1047 11.8749 20.3545 12.1243 20.5304C12.3737 20.7062 12.6669 20.8 12.9668 20.8C13.369 20.8 13.7548 20.6314 14.0392 20.3314C14.3236 20.0313 14.4834 19.6243 14.4834 19.2ZM20.5498 19.2C20.5498 18.8836 20.4608 18.5742 20.2942 18.3111C20.1275 18.048 19.8907 17.8429 19.6136 17.7218C19.3364 17.6007 19.0315 17.569 18.7373 17.6307C18.4431 17.6925 18.1729 17.8449 17.9608 18.0686C17.7487 18.2924 17.6042 18.5775 17.5457 18.8879C17.4872 19.1982 17.5172 19.5199 17.632 19.8123C17.7468 20.1047 17.9412 20.3545 18.1906 20.5304C18.44 20.7062 18.7332 20.8 19.0332 20.8C19.4354 20.8 19.8211 20.6314 20.1056 20.3314C20.39 20.0313 20.5498 19.6243 20.5498 19.2Z" fill="#1D1D1F"/>
</svg>
